<svg width="21" height="13" viewBox="0 0 21 13" fill="none" xmlns="http://www.w3.org/2000/svg">
<path d="M20.0931 5.59155H3.14797L7.19134 1.54793C7.54556 1.19391 7.54556 0.619631 7.19134 0.265668C6.83711 -0.0885561 6.26284 -0.0885561 5.90913 0.265668L0.317792 5.85711C-0.0364321 6.21113 -0.0364321 6.78546 0.317792 7.13937L5.90913 12.7311C6.08619 12.9082 6.31824 12.9967 6.55024 12.9967C6.78223 12.9967 7.01428 12.9082 7.19134 12.7311C7.54556 12.3771 7.54556 11.8028 7.19134 11.4489L3.14797 7.40504H20.0931C20.5939 7.40504 21 6.99902 21 6.49827C21 5.99752 20.5939 5.59155 20.0931 5.59155Z" fill="black"/>
</svg>
