<svg width="23" height="22" viewBox="0 0 23 22" fill="none" xmlns="http://www.w3.org/2000/svg">
<path d="M22.0813 7.5698H19.2231C19.1733 3.38531 15.7283 0 11.5002 0C7.27209 0 3.82713 3.38531 3.78186 7.5698L0.91915 7.56531C0.0545162 7.63265 -0.0360214 8.36898 0.00924741 8.63388L2.58224 21.2367C2.65919 21.6767 3.04398 22 3.49214 22H19.5082C19.9609 22 20.3457 21.6767 20.4181 21.2367L22.9912 8.63837C23.0365 8.37347 22.9279 7.63265 22.0813 7.5698ZM11.5002 1.83184C14.7098 1.83184 17.3218 4.39551 17.3716 7.56531H5.62883C5.67862 4.39551 8.29063 1.83184 11.5002 1.83184ZM18.7296 20.1682H4.27529L2.42832 9.40163H20.5721L18.7296 20.1682Z" fill="white"/>
</svg>
