<svg width="23" height="23" viewBox="0 0 23 23" fill="none" xmlns="http://www.w3.org/2000/svg">
<g clip-path="url(#clip0)">
<path d="M22.0815 8.5698H19.2232C19.1734 4.38531 15.7284 1 11.5003 1C7.27221 1 3.82725 4.38531 3.78198 8.5698L0.919272 8.56531C0.0546383 8.63265 -0.0358993 9.36898 0.00936948 9.63388L2.58236 22.2367C2.65932 22.6767 3.0441 23 3.49226 23H19.5084C19.9611 23 20.3458 22.6767 20.4183 22.2367L22.9914 9.63837C23.0366 9.37347 22.928 8.63265 22.0815 8.5698ZM11.5003 2.83184C14.7099 2.83184 17.3219 5.39551 17.3717 8.56531H5.62895C5.67875 5.39551 8.29076 2.83184 11.5003 2.83184ZM18.7297 21.1682H4.27541L2.42845 10.4016H20.5722L18.7297 21.1682Z" fill="white"/>
<path d="M7.19346 15H8.80654C8.9137 15 9 14.5539 9 14C9 13.4461 8.9137 13 8.80654 13H7.19346C7.0863 13 7 13.4461 7 14C7 14.5539 7.08725 15 7.19346 15Z" fill="white"/>
<path d="M14.1935 15H15.8065C15.9137 15 16 14.5539 16 14C16 13.4461 15.9137 13 15.8065 13H14.1935C14.0863 13 14 13.4461 14 14C14 14.5539 14.0872 15 14.1935 15Z" fill="white"/>
</g>
<defs>
<clipPath id="clip0">
<rect width="23" height="23" fill="white"/>
</clipPath>
</defs>
</svg>
