<svg width="15" height="15" viewBox="0 0 15 15" fill="none" xmlns="http://www.w3.org/2000/svg">
<path d="M14.3755 0H0.62449C0.278571 0 0 0.278571 0 0.62449V14.3755C0 14.7214 0.278571 15 0.62449 15H14.3755C14.7214 15 15 14.7214 15 14.3755V0.62449C15 0.278571 14.7214 0 14.3755 0ZM13.751 13.751H1.24898V1.24898H13.748V13.751H13.751Z" fill="#9B9B9B"/>
<path d="M6.41404 4.99283H11.3518C11.6977 4.99283 11.9763 4.71426 11.9763 4.36834C11.9763 4.02242 11.6977 3.74385 11.3518 3.74385H6.41404C6.06812 3.74385 5.78955 4.02242 5.78955 4.36834C5.78955 4.7112 6.06812 4.99283 6.41404 4.99283Z" fill="#9B9B9B"/>
<path d="M6.41404 8.12448H11.3518C11.6977 8.12448 11.9763 7.84591 11.9763 7.49999C11.9763 7.15407 11.6977 6.8755 11.3518 6.8755H6.41404C6.06812 6.8755 5.78955 7.15407 5.78955 7.49999C5.78955 7.84591 6.06812 8.12448 6.41404 8.12448Z" fill="#9B9B9B"/>
<path d="M6.41404 11.2592H11.3518C11.6977 11.2592 11.9763 10.9806 11.9763 10.6347C11.9763 10.2888 11.6977 10.0102 11.3518 10.0102H6.41404C6.06812 10.0102 5.78955 10.2888 5.78955 10.6347C5.78955 10.9775 6.06812 11.2592 6.41404 11.2592Z" fill="#9B9B9B"/>
<path d="M3.70701 11.2592C4.05191 11.2592 4.3315 10.9796 4.3315 10.6347C4.3315 10.2898 4.05191 10.0102 3.70701 10.0102C3.36211 10.0102 3.08252 10.2898 3.08252 10.6347C3.08252 10.9796 3.36211 11.2592 3.70701 11.2592Z" fill="#9B9B9B"/>
<path d="M3.70701 8.12448C4.05191 8.12448 4.3315 7.84489 4.3315 7.49999C4.3315 7.1551 4.05191 6.8755 3.70701 6.8755C3.36211 6.8755 3.08252 7.1551 3.08252 7.49999C3.08252 7.84489 3.36211 8.12448 3.70701 8.12448Z" fill="#9B9B9B"/>
<path d="M3.70701 4.98981C4.05191 4.98981 4.3315 4.71022 4.3315 4.36532C4.3315 4.02042 4.05191 3.74083 3.70701 3.74083C3.36211 3.74083 3.08252 4.02042 3.08252 4.36532C3.08252 4.71022 3.36211 4.98981 3.70701 4.98981Z" fill="#9B9B9B"/>
</svg>
