<svg width="32" height="35" viewBox="0 0 32 35" fill="none" xmlns="http://www.w3.org/2000/svg">
<path d="M31.7153 7.59802L16.2174 0.116289C16.08 0.0500227 15.92 0.0500227 15.7827 0.116289L0.284736 7.59802C0.111936 7.68142 0.00213623 7.85642 0.00213623 8.04828V26.2182C0.00213623 26.4101 0.111936 26.5851 0.284736 26.6685L15.7826 34.1502C15.8513 34.1833 15.9257 34.1999 16 34.1999C16.0743 34.1999 16.1487 34.1833 16.2174 34.1502L31.7153 26.6685C31.8881 26.5851 31.9979 26.4101 31.9979 26.2182V8.04835C31.9979 7.85635 31.888 7.68148 31.7153 7.59802ZM16 1.12182L30.3478 8.04828L26.1887 10.0561C26.1623 10.0361 26.1345 10.0175 26.104 10.0028L11.8537 3.12349L16 1.12182ZM10.7245 3.68882L25.0514 10.6052L22.1171 12.0218L7.79607 5.10822L10.7245 3.68882ZM25.3866 11.5537V16.7901L22.6457 18.1133V12.8769L25.3866 11.5537ZM30.9979 25.9045L16.5 32.9033V15.8438L19.9582 14.1743C20.2069 14.0543 20.3111 13.7554 20.1911 13.5067C20.071 13.2581 19.7721 13.1537 19.5234 13.2738L16 14.9748L14.6136 14.3055C14.3649 14.1853 14.066 14.2897 13.9459 14.5383C13.8259 14.787 13.9301 15.0859 14.1788 15.206L15.5 15.8438V32.9033L1.00214 25.9043V8.84488L12.0421 14.1745C12.1122 14.2084 12.1863 14.2244 12.2591 14.2244C12.445 14.2244 12.6235 14.1203 12.7097 13.9417C12.8298 13.693 12.7255 13.3941 12.4769 13.274L1.6522 8.04828L6.6192 5.65042L21.6388 12.9013C21.641 12.9043 21.6435 12.9071 21.6457 12.9101V18.91C21.6457 19.0821 21.7342 19.242 21.8799 19.3335C21.9609 19.3843 22.0532 19.41 22.1458 19.41C22.2199 19.41 22.2943 19.3935 22.3631 19.3603L26.104 17.5543C26.2768 17.4709 26.3866 17.296 26.3866 17.1041V11.0711L30.9979 8.84495V25.9045Z" fill="#A8A8A8"/>
</svg>
