<svg width="26" height="16" viewBox="0 0 26 16" fill="none" xmlns="http://www.w3.org/2000/svg">
<g clip-path="url(#clip0)">
<path d="M16.42 14.3H9.42004V1.72998H16.42V14.3Z" fill="#868686"/>
<path d="M9.86998 8.01992C9.86885 6.8065 10.1438 5.60871 10.6739 4.51723C11.2041 3.42576 11.9756 2.46915 12.93 1.71987C11.7538 0.784619 10.337 0.20095 8.84325 0.036275C7.34952 -0.1284 5.83967 0.132659 4.4879 0.789205C3.13613 1.44575 1.99756 2.47112 1.20348 3.74697C0.409399 5.02281 -0.00784866 6.49714 -1.37249e-05 7.9999C-0.00204052 9.50017 0.418852 10.9706 1.21446 12.2426C2.01008 13.5145 3.14823 14.5365 4.49816 15.1911C5.84808 15.8457 7.35514 16.1064 8.84654 15.9435C10.3379 15.7806 11.7533 15.2005 12.93 14.2699C11.9767 13.5309 11.2052 12.5833 10.6748 11.4999C10.1444 10.4165 9.86903 9.22617 9.86998 8.01992Z" fill="#A8A8A8"/>
<path d="M25.85 8.02014C25.852 9.52041 25.4311 10.9909 24.6355 12.2628C23.8399 13.5348 22.7019 14.5567 21.3519 15.2113C20.002 15.8659 18.4948 16.1267 17.0034 15.9637C15.512 15.8008 14.0968 15.2208 12.92 14.2902C13.8726 13.5416 14.6426 12.5863 15.1721 11.4967C15.7016 10.4071 15.9767 9.21158 15.9767 8.00012C15.9767 6.78866 15.7016 5.59315 15.1721 4.50354C14.6426 3.41393 13.8726 2.45865 12.92 1.71008C14.0977 0.773734 15.5162 0.189943 17.0117 0.0259991C18.5073 -0.137945 20.0187 0.124577 21.3712 0.783567C22.7237 1.44256 23.8621 2.47107 24.6547 3.74988C25.4472 5.02868 25.8616 6.50567 25.85 8.01013" fill="white"/>
</g>
<defs>
<clipPath id="clip0">
<rect width="26" height="16" fill="white"/>
</clipPath>
</defs>
</svg>
