<svg width="50" height="14" viewBox="0 0 50 14" fill="none" xmlns="http://www.w3.org/2000/svg">
<g clip-path="url(#clip0)">
<path d="M0 13.9299V0H5.10999C6.07999 0.33 6.53005 1.05 6.80005 2C7.35005 3.99 7.99998 5.95993 8.59998 7.92993C8.63998 8.08993 8.72004 8.2399 8.79004 8.3999H8.91003C8.97003 8.2399 9.04998 8.09993 9.09998 7.92993C9.75998 5.77993 10.43 3.61996 11.08 1.45996C11.28 0.799961 11.71 0.360107 12.34 0.110107L12.59 -0.0100098H17.7V13.8899H13.4399V13.46V6.11011C13.4399 6.01011 13.47 5.89005 13.42 5.80005C13.37 5.70005 13.2801 5.57004 13.1801 5.54004C13.1101 5.52004 12.98 5.62996 12.91 5.70996C12.85 5.76996 12.8401 5.87997 12.8101 5.96997L11.22 11.1599L10.38 13.8899H7.32996C7.28996 13.7599 7.22995 13.64 7.19995 13.52L4.90002 6.05005C4.87002 5.95005 4.87005 5.82 4.80005 5.75C4.73005 5.66 4.6 5.55007 4.5 5.57007C4.41 5.58007 4.31002 5.71007 4.27002 5.82007C4.23002 5.92007 4.25 6.01988 4.25 6.12988V13.9399L0 13.9299Z" fill="white"/>
<path d="M33.53 0V13.8999H29.26V13.52V5.94995C29.26 5.85995 29.29 5.74992 29.26 5.66992C29.21 5.56992 29.14 5.44993 29.04 5.42993C28.98 5.39993 28.85 5.48005 28.79 5.55005C28.71 5.64005 28.69 5.76012 28.63 5.87012L25.4301 12.75C25.0501 13.57 24.4601 13.9499 23.5601 13.9299C22.2801 13.9099 21.0001 13.9299 19.6801 13.9299V0H23.9399V7.81006C23.9399 7.91006 23.9099 8.0101 23.9399 8.1001C23.9899 8.2001 24.0801 8.33011 24.1801 8.36011C24.2501 8.38011 24.38 8.28997 24.46 8.21997C24.53 8.15997 24.55 8.04997 24.59 7.96997C25.59 5.81997 26.61 3.67001 27.59 1.51001C27.9 0.83001 28.26 0.27 28.98 0H33.53Z" fill="white"/>
<path d="M49.4399 5.12012L49.3199 5.62012H49C46.65 5.62012 44.2899 5.64012 41.9399 5.62012C40.8088 5.65409 39.6864 5.41127 38.6704 4.91284C37.6544 4.41442 36.7755 3.67536 36.11 2.76001C35.5166 1.95833 35.1629 1.00473 35.09 0.0100098H45.25C45.32 0.0300098 45.4 0.0600684 45.48 0.0700684C47.43 0.470068 48.68 1.62002 49.26 3.52002C49.34 3.79002 49.3799 4.06009 49.4399 4.34009V5.12012Z" fill="#E4E4E4"/>
<path d="M35.66 14V6.3501H49.15C48.8192 7.27307 48.2068 8.06877 47.3994 8.625C46.592 9.18123 45.6303 9.46974 44.65 9.44995H39.92V14H35.66Z" fill="white"/>
</g>
<defs>
<clipPath id="clip0">
<rect width="50" height="14" fill="white"/>
</clipPath>
</defs>
</svg>
