<svg width="13" height="14" viewBox="0 0 13 14" fill="none" xmlns="http://www.w3.org/2000/svg">
<path d="M2.00707 4.36092C2.22879 4.36092 2.40848 4.17784 2.40848 3.9523V3.10553H4.98019V10.9056H2.95509C2.73338 10.9056 2.55368 11.0885 2.55368 11.3142V13.2756C2.55368 13.5013 2.73338 13.6842 2.95509 13.6842H10.0458C10.2674 13.6842 10.4473 13.5013 10.4473 13.2756V11.3142C10.4473 11.0885 10.2674 10.9056 10.0458 10.9056H8.03094V3.10553H10.5915V3.9523C10.5915 4.17784 10.7712 4.36092 10.9929 4.36092H12.5986C12.8203 4.36092 13 4.17784 13 3.9523V0.408622C13 0.182922 12.8203 0 12.5986 0H0.401414C0.179695 0 0 0.182922 0 0.408622V3.9523C0 4.17784 0.179695 4.36092 0.401414 4.36092H2.00707ZM0.802827 0.817244H12.1972V3.54368H11.3943V2.69691C11.3943 2.47121 11.2145 2.28828 10.9929 2.28828H7.62952C7.40781 2.28828 7.22811 2.47121 7.22811 2.69691V11.3142C7.22811 11.5399 7.40781 11.7228 7.62952 11.7228H9.64428V12.867H3.35651V11.7228H5.38161C5.60317 11.7228 5.78302 11.5399 5.78302 11.3142V2.69691C5.78302 2.47121 5.60317 2.28828 5.38161 2.28828H2.00707C1.78535 2.28828 1.60565 2.47121 1.60565 2.69691V3.54368H0.802827V0.817244Z" fill="#444444"/>
</svg>
