<svg width="47" height="14" viewBox="0 0 47 14" fill="none" xmlns="http://www.w3.org/2000/svg">
<g clip-path="url(#clip0)">
<path d="M17.02 13.7L19.38 0.439941H23.0601L20.78 13.71L17.02 13.7Z" fill="white"/>
<path d="M34.12 0.589999C33.0331 0.184084 31.8801 -0.0160774 30.72 -8.90617e-05C27.04 -8.90617e-05 24.39 1.83991 24.39 4.49991C24.39 6.47991 26.23 7.51984 27.71 8.17984C29.18 8.83984 29.62 9.27979 29.62 9.87979C29.62 10.7598 28.44 11.1999 27.42 11.1999C26.1957 11.2282 24.9811 10.975 23.87 10.4599L23.36 10.2399L22.84 13.2599C23.73 13.6299 25.34 13.9999 27.04 13.9999C30.94 13.9999 33.53 12.16 33.53 9.36002C33.53 7.81002 32.57 6.62983 30.36 5.66983C29.03 5.00983 28.22 4.63988 28.22 3.96988C28.22 3.38988 28.88 2.79996 30.36 2.79996C31.61 2.79996 32.49 3.01998 33.16 3.31998L33.53 3.45987L34.12 0.589999Z" fill="white"/>
<path d="M38.76 9.28003C38.98 8.62003 40.23 5.37988 40.23 5.37988C40.23 5.37988 40.53 4.57005 40.75 4.05005L40.97 5.31006C40.97 5.31006 41.71 8.62011 41.85 9.36011H38.75L38.76 9.28003ZM40.46 0.439941C39.56 0.439941 38.91 0.519902 38.54 1.3999L33.01 13.7H36.99L37.73 11.5H42.4399L42.88 13.7H46.42L43.3199 0.439941H40.45H40.46Z" fill="white"/>
<path d="M10.24 9.72998L9.87 7.81006C9.21 5.60006 7.06997 3.16999 4.71997 1.98999L8.03003 13.78H12.01L17.98 0.52002H14L10.24 9.72998Z" fill="white"/>
<path d="M0 0.439941L0.660034 0.590088C5.38003 1.69009 8.62 4.49006 9.87 7.81006L8.55005 1.55005C8.33005 0.660049 7.65998 0.449951 6.84998 0.449951L0 0.439941Z" fill="#9B9B9B"/>
</g>
<defs>
<clipPath id="clip0">
<rect width="47" height="14" fill="white"/>
</clipPath>
</defs>
</svg>
