<svg width="28" height="28" viewBox="0 0 28 28" fill="none" xmlns="http://www.w3.org/2000/svg">
<path fill-rule="evenodd" clip-rule="evenodd" d="M14 0C6.26801 0 0 6.26801 0 14C0 21.732 6.26801 28 14 28C21.732 28 28 21.732 28 14C28 6.26801 21.732 0 14 0ZM19.8343 9.18713C20.4768 9.36345 20.9829 9.88298 21.1546 10.5427C21.4667 11.7385 21.4667 14.2334 21.4667 14.2334C21.4667 14.2334 21.4667 16.7282 21.1546 17.924C20.9829 18.5837 20.4768 19.1033 19.8343 19.2797C18.6698 19.6 14 19.6 14 19.6C14 19.6 9.33019 19.6 8.16564 19.2797C7.52309 19.1033 7.01705 18.5837 6.84532 17.924C6.53333 16.7282 6.53333 14.2334 6.53333 14.2334C6.53333 14.2334 6.53333 11.7385 6.84532 10.5427C7.01705 9.88298 7.52309 9.36345 8.16564 9.18713C9.33019 8.86669 14 8.86669 14 8.86669C14 8.86669 18.6698 8.86669 19.8343 9.18713Z" fill="#484848"/>
<path d="M12.6 16.8V12.1333L16.3333 14.4667L12.6 16.8Z" fill="#484848"/>
</svg>
